#Comment line ignore any data following # character 
#Hierarchical Translation and Rotation (.htr) file 
[Header]	
#Header keywords are followed by a single value 
FileType HTR		#Single word string
DataType HTRS		#Translation followed by rotation and scale data
FileVersion 1		#integer
NumSegments 84		#integer
NumFrames 2		#integer
DataFrameRate 30		#integer, data frame rate in this file
EulerRotationOrder ZYX
CalibrationUnits mm
RotationUnits Degrees
GlobalAxisofGravity Y
BoneLengthAxis Y
ScaleFactor 1.00
[SegmentNames&Hierarchy]
#CHILD	PARENT
MASTER GLOBAL
root MASTER
chest root
L_mid_tent01 root
R_mid_tent01 root
spine01 root
Bip01_Neck chest
L_humerus chest
R_humerus chest
weapon_bone chest
Bip01_Head Bip01_Neck
eye_left_bone Bip01_Head
eye_right_bone Bip01_Head
L_forearm L_humerus
L_front_hand L_forearm
L_weapon_bone L_forearm
L_front_hand01_01 L_front_hand
L_front_hand02_01 L_front_hand
L_front_hand03_01 L_front_hand
L_front_hand01_02 L_front_hand01_01
L_front_hand02_02 L_front_hand02_01
L_front_hand03_02 L_front_hand03_01
R_forearm R_humerus
R_front_hand R_forearm
R_weapon_bone R_forearm
R_front_hand01_01 R_front_hand
R_front_hand02_01 R_front_hand
R_front_hand03_01 R_front_hand
R_front_hand01_02 R_front_hand01_01
R_front_hand02_02 R_front_hand02_01
R_front_hand03_02 R_front_hand03_01
null_rope01_connect L_mid_tent01
Rope1_Seg01 null_rope01_connect
Rope1_Seg02 Rope1_Seg01
Rope1_Seg03 Rope1_Seg02
Rope1_Seg04 Rope1_Seg03
Rope1_Seg05 Rope1_Seg04
Rope1_Seg06 Rope1_Seg05
Rope1_Seg07 Rope1_Seg06
Rope1_Seg09 Rope1_Seg07
L_mid_hand01 Rope1_Seg09
L_mid_hand02 Rope1_Seg09
L_mid_hand03 Rope1_Seg09
null_rope02_connect R_mid_tent01
Rope2_Seg01 null_rope02_connect
Rope2_Seg02 Rope2_Seg01
Rope2_Seg03 Rope2_Seg02
Rope2_Seg04 Rope2_Seg03
Rope2_Seg05 Rope2_Seg04
Rope2_Seg06 Rope2_Seg05
Rope2_Seg07 Rope2_Seg06
Rope2_Seg09 Rope2_Seg07
R_mid_hand01 Rope2_Seg09
R_mid_hand02 Rope2_Seg09
R_mid_hand03 Rope2_Seg09
spine02 spine01
spine03 spine02
pelvis spine03
null_rope03_connect pelvis
null_rope04_connect pelvis
Rope3_Seg01 null_rope03_connect
Rope3_Seg02 Rope3_Seg01
Rope3_Seg03 Rope3_Seg02
Rope3_Seg04 Rope3_Seg03
Rope3_Seg05 Rope3_Seg04
Rope3_Seg06 Rope3_Seg05
Rope3_Seg07 Rope3_Seg06
Rope3_Seg08 Rope3_Seg07
Rope3_Seg09 Rope3_Seg08
R_rear_hand01 Rope3_Seg09
R_rear_hand02 Rope3_Seg09
R_rear_hand03 Rope3_Seg09
Rope4_Seg01 null_rope04_connect
Rope4_Seg02 Rope4_Seg01
Rope4_Seg03 Rope4_Seg02
Rope4_Seg04 Rope4_Seg03
Rope4_Seg05 Rope4_Seg04
Rope4_Seg06 Rope4_Seg05
Rope4_Seg07 Rope4_Seg06
Rope4_Seg08 Rope4_Seg07
Rope4_Seg09 Rope4_Seg08
L_rear_hand01 Rope4_Seg09
L_rear_hand02 Rope4_Seg09
L_rear_hand03 Rope4_Seg09
[BasePosition]
#SegmentName Tx, Ty, Tz, Rx, Ry, Rz, BoneLength
MASTER 0.000000 0.000000 0.000000 -90.000000 0.000000 0.000000 10.000000 
root 0.000000 0.000000 0.000000 0.000000 0.000000 0.000000 10.000000 
chest 0.000000 0.000000 0.000000 0.000000 0.000000 0.000000 10.000000 
L_mid_tent01 0.000000 0.000000 0.000000 0.000000 0.000000 0.000000 10.000000 
R_mid_tent01 0.000000 0.000000 0.000000 0.000000 0.000000 0.000000 10.000000 
spine01 0.000000 0.000000 0.000000 0.000000 0.000000 0.000000 10.000000 
Bip01_Neck 0.000000 0.000000 0.000000 0.000000 0.000000 0.000000 10.000000 
L_humerus 0.000000 0.000000 0.000000 0.000000 0.000000 0.000000 10.000000 
R_humerus 0.000000 0.000000 0.000000 0.000000 0.000000 0.000000 10.000000 
weapon_bone 0.000000 0.000000 0.000000 0.000000 0.000000 0.000000 10.000000 
Bip01_Head 0.000000 0.000000 0.000000 0.000000 0.000000 0.000000 10.000000 
eye_left_bone 0.000000 0.000000 0.000000 0.000000 0.000000 0.000000 10.000000 
eye_right_bone 0.000000 0.000000 0.000000 0.000000 0.000000 0.000000 10.000000 
L_forearm 0.000000 0.000000 0.000000 0.000000 0.000000 0.000000 10.000000 
L_front_hand 0.000000 0.000000 0.000000 0.000000 0.000000 0.000000 10.000000 
L_weapon_bone 0.000000 0.000000 0.000000 0.000000 0.000000 0.000000 10.000000 
L_front_hand01_01 0.000000 0.000000 0.000000 0.000000 0.000000 0.000000 10.000000 
L_front_hand02_01 0.000000 0.000000 0.000000 0.000000 0.000000 0.000000 10.000000 
L_front_hand03_01 0.000000 0.000000 0.000000 0.000000 0.000000 0.000000 10.000000 
L_front_hand01_02 0.000000 0.000000 0.000000 0.000000 0.000000 0.000000 10.000000 
L_front_hand02_02 0.000000 0.000000 0.000000 0.000000 0.000000 0.000000 10.000000 
L_front_hand03_02 0.000000 0.000000 0.000000 0.000000 0.000000 0.000000 10.000000 
R_forearm 0.000000 0.000000 0.000000 0.000000 0.000000 0.000000 10.000000 
R_front_hand 0.000000 0.000000 0.000000 0.000000 0.000000 0.000000 10.000000 
R_weapon_bone 0.000000 0.000000 0.000000 0.000000 0.000000 0.000000 10.000000 
R_front_hand01_01 0.000000 0.000000 0.000000 0.000000 0.000000 0.000000 10.000000 
R_front_hand02_01 0.000000 0.000000 0.000000 0.000000 0.000000 0.000000 10.000000 
R_front_hand03_01 0.000000 0.000000 0.000000 0.000000 0.000000 0.000000 10.000000 
R_front_hand01_02 0.000000 0.000000 0.000000 0.000000 0.000000 0.000000 10.000000 
R_front_hand02_02 0.000000 0.000000 0.000000 0.000000 0.000000 0.000000 10.000000 
R_front_hand03_02 0.000000 0.000000 0.000000 0.000000 0.000000 0.000000 10.000000 
null_rope01_connect 0.000000 0.000000 0.000000 0.000000 0.000000 0.000000 10.000000 
Rope1_Seg01 0.000000 0.000000 0.000000 0.000000 0.000000 0.000000 10.000000 
Rope1_Seg02 0.000000 0.000000 0.000000 0.000000 0.000000 0.000000 10.000000 
Rope1_Seg03 0.000000 0.000000 0.000000 0.000000 0.000000 0.000000 10.000000 
Rope1_Seg04 0.000000 0.000000 0.000000 0.000000 0.000000 0.000000 10.000000 
Rope1_Seg05 0.000000 0.000000 0.000000 0.000000 0.000000 0.000000 10.000000 
Rope1_Seg06 0.000000 0.000000 0.000000 0.000000 0.000000 0.000000 10.000000 
Rope1_Seg07 0.000000 0.000000 0.000000 0.000000 0.000000 0.000000 10.000000 
Rope1_Seg09 0.000000 0.000000 0.000000 0.000000 0.000000 0.000000 10.000000 
L_mid_hand01 0.000000 0.000000 0.000000 0.000000 0.000000 0.000000 10.000000 
L_mid_hand02 0.000000 0.000000 0.000000 0.000000 0.000000 0.000000 10.000000 
L_mid_hand03 0.000000 0.000000 0.000000 0.000000 0.000000 0.000000 10.000000 
null_rope02_connect 0.000000 0.000000 0.000000 0.000000 0.000000 0.000000 10.000000 
Rope2_Seg01 0.000000 0.000000 0.000000 0.000000 0.000000 0.000000 10.000000 
Rope2_Seg02 0.000000 0.000000 0.000000 0.000000 0.000000 0.000000 10.000000 
Rope2_Seg03 0.000000 0.000000 0.000000 0.000000 0.000000 0.000000 10.000000 
Rope2_Seg04 0.000000 0.000000 0.000000 0.000000 0.000000 0.000000 10.000000 
Rope2_Seg05 0.000000 0.000000 0.000000 0.000000 0.000000 0.000000 10.000000 
Rope2_Seg06 0.000000 0.000000 0.000000 0.000000 0.000000 0.000000 10.000000 
Rope2_Seg07 0.000000 0.000000 0.000000 0.000000 0.000000 0.000000 10.000000 
Rope2_Seg09 0.000000 0.000000 0.000000 0.000000 0.000000 0.000000 10.000000 
R_mid_hand01 0.000000 0.000000 0.000000 0.000000 0.000000 0.000000 10.000000 
R_mid_hand02 0.000000 0.000000 0.000000 0.000000 0.000000 0.000000 10.000000 
R_mid_hand03 0.000000 0.000000 0.000000 0.000000 0.000000 0.000000 10.000000 
spine02 0.000000 0.000000 0.000000 0.000000 0.000000 0.000000 10.000000 
spine03 0.000000 0.000000 0.000000 0.000000 0.000000 0.000000 10.000000 
pelvis 0.000000 0.000000 0.000000 0.000000 0.000000 0.000000 10.000000 
null_rope03_connect 0.000000 0.000000 0.000000 0.000000 0.000000 0.000000 10.000000 
null_rope04_connect 0.000000 0.000000 0.000000 0.000000 0.000000 0.000000 10.000000 
Rope3_Seg01 0.000000 0.000000 0.000000 0.000000 0.000000 0.000000 10.000000 
Rope3_Seg02 0.000000 0.000000 0.000000 0.000000 0.000000 0.000000 10.000000 
Rope3_Seg03 0.000000 0.000000 0.000000 0.000000 0.000000 0.000000 10.000000 
Rope3_Seg04 0.000000 0.000000 0.000000 0.000000 0.000000 0.000000 10.000000 
Rope3_Seg05 0.000000 0.000000 0.000000 0.000000 0.000000 0.000000 10.000000 
Rope3_Seg06 0.000000 0.000000 0.000000 0.000000 0.000000 0.000000 10.000000 
Rope3_Seg07 0.000000 0.000000 0.000000 0.000000 0.000000 0.000000 10.000000 
Rope3_Seg08 0.000000 0.000000 0.000000 0.000000 0.000000 0.000000 10.000000 
Rope3_Seg09 0.000000 0.000000 0.000000 0.000000 0.000000 0.000000 10.000000 
R_rear_hand01 0.000000 0.000000 0.000000 0.000000 0.000000 0.000000 10.000000 
R_rear_hand02 0.000000 0.000000 0.000000 0.000000 0.000000 0.000000 10.000000 
R_rear_hand03 0.000000 0.000000 0.000000 0.000000 0.000000 0.000000 10.000000 
Rope4_Seg01 0.000000 0.000000 0.000000 0.000000 0.000000 0.000000 10.000000 
Rope4_Seg02 0.000000 0.000000 0.000000 0.000000 0.000000 0.000000 10.000000 
Rope4_Seg03 0.000000 0.000000 0.000000 0.000000 0.000000 0.000000 10.000000 
Rope4_Seg04 0.000000 0.000000 0.000000 0.000000 0.000000 0.000000 10.000000 
Rope4_Seg05 0.000000 0.000000 0.000000 0.000000 0.000000 0.000000 10.000000 
Rope4_Seg06 0.000000 0.000000 0.000000 0.000000 0.000000 0.000000 10.000000 
Rope4_Seg07 0.000000 0.000000 0.000000 0.000000 0.000000 0.000000 10.000000 
Rope4_Seg08 0.000000 0.000000 0.000000 0.000000 0.000000 0.000000 10.000000 
Rope4_Seg09 0.000000 0.000000 0.000000 0.000000 0.000000 0.000000 10.000000 
L_rear_hand01 0.000000 0.000000 0.000000 0.000000 0.000000 0.000000 10.000000 
L_rear_hand02 0.000000 0.000000 0.000000 0.000000 0.000000 0.000000 10.000000 
L_rear_hand03 0.000000 0.000000 0.000000 0.000000 0.000000 0.000000 10.000000 
#Beginning of Data. Separated by tabs
#Fr	Tx	Ty	Tz	Rx	Ry	Rz	SF
[MASTER]
33 -0.000901 5987.541504 1717.449341 0.001660 0.001660 0.001660 6228.987305
34 -0.000916 6082.138672 1716.364258 0.001660 0.001660 0.001660 6319.676758
[root]
33 -252.944534 -77.352882 1169.922607 -79.186951 -21.566387 -90.365334 1199.451172
34 -208.064117 -75.970451 1253.026367 -81.571922 -24.773638 -90.292160 1272.453247
[chest]
33 -84.512650 -34.090519 0.000000 13.285714 1.420432 144.892380 91.129311
34 -84.512650 -34.090519 0.000000 15.241422 1.529331 146.108139 91.129311
[L_mid_tent01]
33 27.299162 22.179455 -249.918701 -11.515062 29.607658 44.884209 252.381714
34 27.299166 22.179466 -249.918701 -12.968406 28.104044 41.355080 252.381729
[R_mid_tent01]
33 23.228794 24.509907 226.238495 172.475235 -27.465490 65.746712 228.744751
34 23.228794 24.509907 226.238495 174.913605 -27.264738 61.564777 228.744751
[spine01]
33 -0.361383 -0.195265 0.000000 0.001950 0.001307 22.325699 0.410763
34 -0.361383 -0.195265 0.000000 0.001949 0.001308 22.279488 0.410763
[Bip01_Neck]
33 165.484543 71.581718 0.000119 176.643677 -1.657967 43.431911 180.302734
34 165.484543 71.581718 0.000119 176.643677 -1.657967 43.431911 180.302734
[L_humerus]
33 -13.983130 -135.272980 -120.471481 163.559387 58.527905 -103.976418 181.680161
34 -13.983130 -135.272980 -120.471481 160.257248 64.807831 -107.724846 181.680161
[R_humerus]
33 -13.983309 -135.273102 125.287651 -172.821121 -57.944416 -91.992661 184.909012
34 -13.983309 -135.273102 125.287651 -172.346649 -62.513641 -92.553253 184.909012
[weapon_bone]
33 235.964890 -300.705902 0.000000 0.000000 -89.951546 -128.212341 382.234833
34 235.964890 -300.705902 0.000000 0.000000 -89.951546 -128.212341 382.234833
[Bip01_Head]
33 213.432312 185.749207 11.342721 5.200446 6.151311 -43.834991 283.169159
34 213.441772 185.723267 11.678619 5.200446 6.151311 -43.834991 283.172943
[eye_left_bone]
33 -24.626970 125.451866 -64.772606 0.000000 -90.000000 -99.840431 143.318359
34 -24.626970 125.451866 -64.772606 0.000000 -90.000000 -99.840431 143.318359
[eye_right_bone]
33 -24.626970 125.451866 64.327362 0.000000 -89.965736 80.156380 143.117676
34 -24.626970 125.451866 64.327362 0.000000 -89.965736 80.156380 143.117676
[L_forearm]
33 322.776093 0.000000 -0.000119 0.000307 -0.002327 -105.011391 322.776093
34 322.776093 0.000000 -0.000119 0.000317 -0.002326 -105.499977 322.776093
[L_front_hand]
33 241.149185 -0.042021 -3.300071 20.515818 -1.835318 -27.424429 241.171753
34 241.149185 -0.042021 -3.300071 52.668331 -1.833248 -27.422546 241.171753
[L_weapon_bone]
33 156.183838 0.000000 0.000000 0.000014 0.000007 0.000001 156.183838
34 156.183838 0.000000 0.000000 0.000014 0.000007 0.000001 156.183838
[L_front_hand01_01]
33 86.095154 20.947098 -0.655860 0.357230 -0.482178 1.305771 88.609184
34 86.095154 20.947098 -0.655860 0.405585 -0.442306 -4.620473 88.609184
[L_front_hand02_01]
33 86.935165 -11.437475 24.513514 116.912949 -1.653967 -1.188109 91.046425
34 86.935165 -11.437475 24.513514 116.959450 3.630802 1.495445 91.046425
[L_front_hand03_01]
33 86.637497 -14.123976 -20.424902 -118.323631 0.554522 -2.967903 90.126129
34 86.637497 -14.123976 -20.424902 -118.419884 -4.660541 -0.155077 90.126129
[L_front_hand01_02]
33 71.020905 -0.000179 0.000030 0.000000 0.000000 -57.378475 71.020905
34 71.020905 -0.000179 0.000030 0.001534 0.001777 -8.378930 71.020905
[L_front_hand02_02]
33 71.020927 -0.000119 0.000060 0.000000 0.000000 -57.378475 71.020927
34 71.020927 -0.000119 0.000060 0.001534 0.001777 -8.378930 71.020927
[L_front_hand03_02]
33 71.020905 -0.000060 0.000060 0.000000 0.000000 -57.378475 71.020905
34 71.020905 -0.000060 0.000060 0.001534 0.001777 -8.378930 71.020905
[R_forearm]
33 322.776428 -0.000060 0.000030 0.208191 0.045969 -103.613228 322.776428
34 322.776428 -0.000060 0.000030 0.208493 0.047510 -104.104698 322.776428
[R_front_hand]
33 238.847015 -0.006795 2.210259 137.619415 -10.643446 -26.313208 238.857239
34 238.847015 -0.006795 2.210259 100.994843 -10.642804 -26.312675 238.857239
[R_weapon_bone]
33 155.664093 0.002503 -0.000030 0.003487 0.001180 -90.988930 155.664078
34 155.664093 0.002503 -0.000030 0.003487 0.001180 -90.988930 155.664078
[R_front_hand01_01]
33 87.624611 14.231146 22.918642 -116.903458 0.432173 0.238219 91.683487
34 87.624611 14.231146 22.918642 -116.960213 3.496655 -1.324128 91.683487
[R_front_hand02_01]
33 89.356956 14.367283 -19.491137 118.339790 -1.230886 2.245635 92.579636
34 89.356956 14.367283 -19.491137 118.419647 -4.257069 0.609838 92.579636
[R_front_hand03_01]
33 87.286232 -22.307278 -0.143439 -0.376010 -0.257865 0.793882 90.091743
34 87.286232 -22.307278 -0.143439 -0.387970 -0.231462 4.231978 90.091743
[R_front_hand01_02]
33 71.020905 0.000060 0.000119 0.001777 0.001534 8.377220 71.020905
34 71.020905 0.000060 0.000119 0.001777 0.001534 8.377323 71.020905
[R_front_hand02_02]
33 71.020844 -0.000030 -0.000119 0.001777 0.001534 8.377220 71.020836
34 71.020844 -0.000030 -0.000119 0.001777 0.001534 8.377323 71.020836
[R_front_hand03_02]
33 71.020905 0.000000 0.000030 0.001777 0.001534 8.377220 71.020905
34 71.020905 0.000000 0.000030 0.001777 0.001534 8.377323 71.020905
[null_rope01_connect]
33 328.732483 0.000000 -0.000238 -125.203705 -67.741913 -172.362137 328.732483
34 328.732483 0.000000 -0.000238 -124.890488 -66.610794 -165.853668 328.732483
[Rope1_Seg01]
33 0.000038 -0.000474 0.000036 118.670738 44.636829 147.346710 0.000477
34 0.000038 -0.000488 0.000033 119.498642 58.267143 143.304779 0.000490
[Rope1_Seg02]
33 139.999863 -0.000179 0.000000 1.115713 0.485065 -5.896740 139.999863
34 139.999863 -0.000179 0.000000 0.471705 1.925531 -4.428451 139.999863
[Rope1_Seg03]
33 139.999924 0.000060 -0.000060 2.481901 0.567406 -9.142574 139.999924
34 139.999924 0.000060 -0.000060 0.963198 2.812432 -6.647470 139.999924
[Rope1_Seg04]
33 139.999924 -0.000060 -0.000119 8.640078 0.708454 -18.702295 139.999924
34 139.999924 -0.000060 -0.000119 2.909155 6.040987 -13.760489 139.999924
[Rope1_Seg05]
33 139.999832 0.000119 -0.000060 21.633648 -3.067039 -22.507473 139.999832
34 139.999832 0.000119 -0.000060 12.521345 6.429757 -19.939089 139.999832
[Rope1_Seg06]
33 139.999954 0.000119 -0.000060 -0.296454 -1.324253 1.825354 139.999954
34 139.999954 0.000119 -0.000060 -0.850483 -4.030280 5.214848 139.999954
[Rope1_Seg07]
33 139.999985 0.000060 0.000000 1.433451 -1.489858 -0.180176 139.999985
34 139.999985 0.000060 0.000000 0.258620 -2.303762 2.232520 139.999985
[Rope1_Seg09]
33 121.602913 0.000119 -0.000089 -89.793175 -1.359789 0.847147 121.602913
34 121.602913 0.000119 -0.000089 -89.793175 -1.359789 0.847147 121.602913
[L_mid_hand01]
33 103.859421 1.038730 8.195221 130.544373 -67.584534 -38.866943 104.187431
34 103.859421 1.038730 8.195221 130.544373 -67.584534 -38.866943 104.187431
[L_mid_hand02]
33 105.572853 -4.139662 -10.864139 -168.923172 43.409309 -73.498886 106.211075
34 105.572853 -4.139662 -10.864139 -168.923172 43.409309 -73.498886 106.211075
[L_mid_hand03]
33 104.641464 17.579376 -3.913581 -6.012626 17.808172 74.893661 106.179977
34 104.641464 17.579376 -3.913581 -6.012627 17.808174 74.893669 106.179977
[null_rope02_connect]
33 328.732849 0.000179 -0.000119 -128.232910 53.027966 2.223028 328.732849
34 328.732849 0.000179 -0.000119 -124.124527 55.653004 0.041684 328.732849
[Rope2_Seg01]
33 0.000067 0.000036 0.000000 -77.733925 44.868519 11.550209 0.000076
34 0.000068 0.000033 0.000000 -83.297791 51.375492 10.778204 0.000076
[Rope2_Seg02]
33 139.999741 -0.000060 -0.000119 -3.122367 5.838141 1.288984 139.999756
34 139.999741 -0.000060 -0.000119 -2.430058 6.184262 0.281549 139.999756
[Rope2_Seg03]
33 140.000107 0.000030 0.000000 -4.557160 7.471602 1.251537 140.000107
34 140.000107 0.000030 0.000000 -3.693844 8.155676 -0.083193 140.000107
[Rope2_Seg04]
33 139.999802 0.000000 -0.000060 -5.229074 10.938120 -1.474186 139.999802
34 139.999802 0.000000 -0.000060 -3.102815 13.729437 -4.867953 139.999802
[Rope2_Seg05]
33 139.999985 -0.000060 0.000119 -20.492298 1.915921 15.463542 139.999985
34 139.999985 -0.000060 0.000119 -21.244150 -0.022000 14.617817 139.999985
[Rope2_Seg06]
33 139.999893 -0.000030 -0.000119 -11.798660 -10.057861 18.065662 139.999893
34 139.999893 -0.000030 -0.000119 -11.923244 -18.073784 20.900724 139.999893
[Rope2_Seg07]
33 139.999893 0.000060 -0.000060 -3.740305 -5.736702 9.026855 139.999893
34 139.999893 0.000060 -0.000060 -2.748405 -8.711537 9.105891 139.999893
[Rope2_Seg09]
33 121.338966 0.000089 -0.000060 33.793236 -1.359788 -0.847141 121.338966
34 121.338966 0.000089 -0.000060 33.793236 -1.359788 -0.847141 121.338966
[R_mid_hand01]
33 104.680779 11.144459 -10.335981 -16.212063 45.237240 70.462852 105.778534
34 104.680779 11.144459 -10.335981 -16.212063 45.237247 70.462852 105.778534
[R_mid_hand02]
33 104.070427 2.443552 8.231699 49.067368 -67.749771 39.286453 104.424065
34 104.070427 2.443552 8.231699 49.067368 -67.749779 39.286465 104.424065
[R_mid_hand03]
33 106.028137 -11.221827 -5.996406 -177.101105 15.551026 -76.585571 106.788818
34 106.028137 -11.221827 -5.996406 -177.101105 15.551026 -76.585571 106.788818
[spine02]
33 129.756927 0.001550 0.000119 -0.093607 -4.059548 -6.536554 129.756927
34 129.756927 0.001550 0.000119 -0.043758 -4.060569 -7.241705 129.756927
[spine03]
33 78.613930 0.081555 -4.899015 1.626706 3.953184 12.496967 78.766472
34 78.613930 0.081547 -4.899016 1.657437 3.940789 12.934989 78.766472
[pelvis]
33 169.435242 0.051022 0.000000 -0.036105 -0.189606 6.054850 169.435257
34 169.435242 0.051022 0.000000 -0.039548 -0.189177 6.944793 169.435257
[null_rope03_connect]
33 -1.257226 -2.466202 137.391083 19.135305 -78.657829 58.140491 137.418976
34 -1.257226 -2.466202 137.391083 22.164244 -80.978615 57.728024 137.418976
[null_rope04_connect]
33 -1.259640 -2.480268 -137.844437 19.135305 -78.657829 58.140491 137.872513
34 -1.259640 -2.480268 -137.844437 22.164244 -80.978615 57.728024 137.872513
[Rope3_Seg01]
33 0.000018 -0.000474 0.000000 -130.658127 -1.309519 -70.300316 0.000474
34 0.000016 -0.000488 0.000000 -130.626923 -0.133778 -76.168747 0.000488
[Rope3_Seg02]
33 139.999924 -0.000119 0.000060 5.656012 -20.303362 -39.674374 139.999924
34 139.999924 -0.000119 0.000060 7.294291 -21.452295 -37.338753 139.999924
[Rope3_Seg03]
33 139.999924 -0.000119 0.000119 -106.389191 -10.907216 -45.791836 139.999924
34 139.999924 -0.000119 0.000119 -116.589401 -17.675486 -52.334732 139.999924
[Rope3_Seg04]
33 139.999924 0.000119 0.000000 -25.382187 10.256388 -1.357106 139.999924
34 139.999924 0.000119 0.000000 -25.242025 11.873134 1.048365 139.999924
[Rope3_Seg05]
33 139.999924 -0.000238 0.000060 -48.390041 5.109151 -15.619379 139.999924
34 139.999924 -0.000238 0.000060 -44.023411 3.917652 -14.697797 139.999924
[Rope3_Seg06]
33 139.999893 -0.000119 -0.000060 -75.862419 36.259567 -28.692385 139.999893
34 139.999893 -0.000119 -0.000060 -80.519035 29.260410 -29.213482 139.999893
[Rope3_Seg07]
33 139.999771 0.000060 -0.000119 -1.431523 16.858355 13.436972 139.999771
34 139.999771 0.000060 -0.000119 -2.931577 16.210712 12.026504 139.999771
[Rope3_Seg08]
33 139.999985 -0.000060 0.000000 0.228835 6.292199 5.752399 139.999985
34 139.999985 -0.000060 0.000000 -0.080157 6.148422 5.581376 139.999985
[Rope3_Seg09]
33 90.185997 -0.000179 -0.000060 89.793228 -1.359877 -0.847183 90.185997
34 90.185997 -0.000179 -0.000060 89.793228 -1.359877 -0.847183 90.185997
[R_rear_hand01]
33 103.366196 -6.073594 -10.757982 -177.714203 24.565960 -73.910950 104.101845
34 103.366196 -6.073594 -10.757982 -177.714203 24.565960 -73.910950 104.101845
[R_rear_hand02]
33 100.509819 12.039542 -7.992327 -12.874829 36.868488 72.167213 101.543350
34 100.509819 12.039542 -7.992327 -12.874829 36.868488 72.167213 101.543350
[R_rear_hand03]
33 101.539970 5.215704 5.435467 71.484619 -71.816643 21.513803 101.819031
34 101.539970 5.215704 5.435467 71.484581 -71.816628 21.513813 101.819031
[Rope4_Seg01]
33 -0.000010 -0.000456 -0.000036 71.198654 -26.175987 -150.803253 0.000457
34 -0.000010 -0.000471 -0.000033 78.560646 -30.735363 -153.522247 0.000473
[Rope4_Seg02]
33 139.999985 0.000060 0.000119 -8.687930 -0.939428 -7.665638 139.999985
34 139.999985 0.000060 0.000119 -7.730479 -2.044962 -6.909549 139.999985
[Rope4_Seg03]
33 139.999924 0.000000 -0.000238 -16.437279 0.356363 -11.692889 139.999924
34 139.999924 0.000000 -0.000238 -16.173626 -1.648057 -10.872334 139.999924
[Rope4_Seg04]
33 139.999985 0.000000 0.000119 -18.990072 5.453684 -11.503149 139.999985
34 139.999985 0.000000 0.000119 -21.524181 3.798594 -11.323257 139.999985
[Rope4_Seg05]
33 139.999802 -0.000060 -0.000119 -28.178965 12.524036 -19.499674 139.999802
34 139.999802 -0.000060 -0.000119 -36.524845 9.951272 -21.742128 139.999802
[Rope4_Seg06]
33 139.999924 0.000000 0.000060 -28.705896 31.506523 -27.379137 139.999924
34 139.999924 0.000000 0.000060 -34.175926 30.080498 -28.490152 139.999924
[Rope4_Seg07]
33 139.999802 0.000000 0.000000 -3.059256 18.122469 -5.106702 139.999802
34 139.999802 0.000000 0.000000 -3.617333 16.489565 -3.647872 139.999802
[Rope4_Seg08]
33 139.999924 0.000000 0.000119 -1.631560 7.102230 -1.561555 139.999924
34 139.999924 0.000000 0.000119 -2.026666 6.464041 -0.915395 139.999924
[Rope4_Seg09]
33 90.185791 0.000060 0.000060 -135.617828 2.228885 0.850567 90.185791
34 90.185791 0.000060 0.000060 -135.617828 2.228885 0.850567 90.185791
[L_rear_hand01]
33 101.696655 -8.392275 -7.654577 -12.874829 -36.868488 107.832764 102.329041
34 101.696655 -8.392275 -7.654577 -12.874829 -36.868488 107.832764 102.329041
[L_rear_hand02]
33 102.726799 -1.568258 5.773216 71.484581 71.816628 158.486160 102.900848
34 102.726799 -1.568258 5.773216 71.484581 71.816628 158.486160 102.900848
[L_rear_hand03]
33 104.552910 9.721220 -10.420293 -177.714203 -24.565960 -106.089035 105.519653
34 104.552910 9.721220 -10.420293 -177.714203 -24.565960 -106.089035 105.519653
